<svg width="20" height="19" viewBox="0 0 20 19" fill="none" xmlns="http://www.w3.org/2000/svg">
<path d="M16.2169 2.41329C16.2034 2.39021 16.1868 2.36819 16.1671 2.35141C15.8995 2.1217 15.6205 1.90877 15.3321 1.71263C14.7139 1.28259 14.0387 0.924916 13.3167 0.6564C12.0741 0.19279 10.7599 0.0270658 9.47365 0.130906C8.48306 0.20223 7.49766 0.434035 6.55686 0.838906C5.68244 1.21546 4.88063 1.72941 4.15766 2.35141C4.14936 2.35875 4.14106 2.36609 4.1338 2.37448C3.74897 2.71013 3.39008 3.08038 3.06334 3.48316C0.614351 6.50711 0.282426 10.881 2.30199 14.228C2.79884 15.0514 3.4129 15.7761 4.11409 16.3887C4.12654 16.4076 4.14002 16.4244 4.15662 16.438C5.17107 17.3107 6.34525 17.9379 7.58894 18.304C7.66466 18.326 7.74038 18.348 7.8161 18.369C7.82025 18.3701 7.8244 18.3711 7.82855 18.3722C9.16869 18.7319 10.596 18.7938 12.0004 18.5085C12.6 18.3868 13.1808 18.2022 13.7358 17.9631C13.7462 17.9589 13.7565 17.9547 13.7669 17.9505C14.6413 17.5739 15.4431 17.06 16.1661 16.438C16.1931 16.4149 16.2149 16.3897 16.2304 16.3635C17.806 14.9549 18.9128 13.0155 19.2426 10.8642C19.3173 10.3775 19.3567 9.88663 19.3588 9.39365C19.3484 6.68647 18.1587 4.1513 16.2159 2.41224L16.2169 2.41329ZM9.8481 0.780169V4.40933C9.07327 4.38415 8.29946 4.25304 7.54952 4.01285C7.8244 3.10451 8.20715 2.20456 8.81187 1.49971C9.10023 1.16406 9.45706 0.886107 9.84707 0.77912L9.8481 0.780169ZM6.81306 9.07794C6.83069 7.68711 6.97799 6.29523 7.30058 4.94426C7.32755 4.83098 7.35659 4.71665 7.38563 4.60232C8.18329 4.8572 9.01207 5.003 9.8481 5.03552V9.07794H6.81306ZM9.8481 9.71147V13.7507C9.01829 13.7759 8.18848 13.9144 7.38148 14.1703C7.02778 12.8351 6.86285 11.4474 6.82136 10.0691C6.81825 9.94956 6.81514 9.82999 6.81306 9.71147H9.84707H9.8481ZM7.869 1.05603C7.90012 1.04764 7.93123 1.0382 7.96235 1.0298C7.97895 1.02561 7.99555 1.02141 8.0111 1.01722C8.17188 0.975262 8.33266 0.938551 8.49551 0.906036C7.81091 1.60669 7.38252 2.58846 7.06927 3.4884C7.03296 3.59224 6.99873 3.69713 6.9645 3.80202C6.92197 3.78419 6.87841 3.76846 6.83588 3.74958C6.13676 3.45274 5.47706 3.05521 4.87856 2.58216C5.7675 1.8836 6.78609 1.3644 7.86796 1.05603H7.869ZM2.82477 4.9107C3.25627 4.18906 3.78735 3.54714 4.39208 2.99438C5.12646 3.5849 5.93657 4.05166 6.79232 4.39045C6.41475 5.78128 6.2436 7.23714 6.19692 8.67202C6.19277 8.80732 6.18966 8.94263 6.18759 9.07794H1.61013C1.65992 7.62732 2.06238 6.18615 2.82477 4.9107ZM3.54878 14.9119C2.32999 13.4298 1.67755 11.5827 1.61013 9.71147H6.18551C6.20418 11.225 6.37326 12.7438 6.74356 14.207C6.75809 14.2647 6.77364 14.3234 6.7892 14.3822C6.71141 14.4136 6.63258 14.4441 6.55582 14.4776C5.77372 14.8143 5.05074 15.2611 4.38897 15.7961C4.09127 15.5244 3.81017 15.2297 3.54878 14.9119ZM4.87752 16.2104C5.51855 15.7048 6.22286 15.301 6.96554 15.0021C7.28502 16.0384 7.74142 17.0694 8.47061 17.8519C8.47995 17.8613 8.48928 17.8708 8.49758 17.8802C7.18959 17.6149 5.94487 17.0474 4.87648 16.2104H4.87752ZM9.29109 17.746C8.41045 17.1072 7.93124 15.9261 7.60346 14.9245C7.58894 14.8793 7.57441 14.8332 7.55989 14.787C8.3005 14.55 9.07119 14.4136 9.84707 14.3822V17.9148C9.84707 17.9505 9.85225 17.983 9.86055 18.0134C9.66866 17.9694 9.47676 17.8823 9.29005 17.746H9.29109ZM12.3189 1.00568C13.4692 1.31196 14.5272 1.85738 15.439 2.58426C14.799 3.08773 14.0947 3.4905 13.353 3.78943C13.0315 2.76047 12.573 1.65914 11.8075 0.890302C11.9787 0.923867 12.1498 0.961627 12.3189 1.00568ZM10.4746 2.72062V0.768631C10.5742 0.792755 10.6738 0.830516 10.7744 0.88296C11.683 1.3602 12.2048 2.46573 12.5512 3.38561C12.628 3.5891 12.6985 3.79363 12.7639 4.00131C12.0222 4.23836 11.2515 4.37471 10.4746 4.40618V2.72062ZM10.4746 5.03866C11.3055 5.01349 12.1353 4.87503 12.9433 4.61806C13.241 5.74037 13.4007 6.90359 13.4713 8.05842C13.492 8.39826 13.5034 8.7381 13.5086 9.07794H10.4746V5.03866ZM10.4746 12.0285V9.71147H13.5086C13.4858 11.2177 13.3219 12.7291 12.936 14.186C12.1384 13.9312 11.3096 13.7854 10.4746 13.7539V12.0285ZM10.4622 18.0103C10.4705 17.982 10.4757 17.9505 10.4757 17.9159V14.3811C11.2484 14.4063 12.0212 14.5364 12.769 14.7755C12.4599 15.7845 12.0201 16.8397 11.2536 17.5614C11.0088 17.7921 10.7402 17.9453 10.4622 18.0113V18.0103ZM15.19 16.4118C14.1828 17.145 13.0346 17.64 11.8376 17.8823C12.3884 17.3107 12.768 16.5334 13.0533 15.8317C13.1653 15.5548 13.2669 15.2737 13.3582 14.9884C13.4007 15.0052 13.4443 15.022 13.4858 15.0398C14.188 15.3377 14.8488 15.7363 15.4483 16.2114C15.3633 16.2796 15.2772 16.3457 15.19 16.4107V16.4118ZM15.9306 15.795C15.1973 15.2056 14.3861 14.7388 13.5325 14.4C13.8437 13.2494 14.0086 12.0536 14.0885 10.8715C14.1144 10.4855 14.1289 10.0996 14.1351 9.71252H18.7261C18.6306 12.0494 17.5934 14.2458 15.9317 15.7961L15.9306 15.795ZM18.7261 9.07794H14.1341C14.1113 7.5088 13.9401 5.92393 13.5325 4.40723C13.6103 4.37576 13.6891 4.34535 13.7659 4.31178C14.5438 3.97719 15.2647 3.5335 15.9234 3.00067C17.3278 4.30024 18.3101 6.05923 18.6265 8.02171C18.6825 8.37099 18.7136 8.72446 18.725 9.07794H18.7261Z" fill="#E04403"/>
</svg>
