<?xml version="1.0" encoding="UTF-8" standalone="no"?>
<!-- Created with Inkscape (http://www.inkscape.org/) -->

<svg
   width="7.1290627mm"
   height="7.1290922mm"
   viewBox="0 0 7.1290627 7.1290922"
   version="1.1"
   id="svg1"
   xml:space="preserve"
   inkscape:export-filename="icon-3.svg"
   inkscape:export-xdpi="96"
   inkscape:export-ydpi="96"
   xmlns:inkscape="http://www.inkscape.org/namespaces/inkscape"
   xmlns:sodipodi="http://sodipodi.sourceforge.net/DTD/sodipodi-0.dtd"
   xmlns="http://www.w3.org/2000/svg"
   xmlns:svg="http://www.w3.org/2000/svg"><sodipodi:namedview
     id="namedview1"
     pagecolor="#505050"
     bordercolor="#eeeeee"
     borderopacity="1"
     inkscape:showpageshadow="0"
     inkscape:pageopacity="0"
     inkscape:pagecheckerboard="0"
     inkscape:deskcolor="#d1d1d1"
     inkscape:document-units="mm" /><defs
     id="defs1" /><g
     inkscape:label="Camada 1"
     inkscape:groupmode="layer"
     id="layer1"
     transform="translate(-100.02609,-152.62883)"><g
       style="fill:none"
       id="g1"
       transform="matrix(0.26458333,0,0,0.26458333,97.984113,137.56266)"><path
         d="m 20.0421,70.1256 h -8.0629 v -0.1915 c 0,-4.3055 3.5458,-7.8499 7.9049,-7.9059 h 0.1534 v 8.0974 z M 12.2859,69.822 h 7.4542 v -7.4903 c -4.0896,0.1308 -7.3938,3.4463 -7.4542,7.4857 z"
         fill="#ffffff"
         id="path2" /><path
         d="m 22.7003,80.6419 h -0.251 v -8.3215 h 8.2674 v 0.1541 c -0.0232,4.5064 -3.6155,8.1674 -8.0118,8.1674 z m 0.0511,-8.0179 v 7.7144 c 4.1593,-0.028 7.561,-3.465 7.6586,-7.7144 z"
         fill="#ffffff"
         id="path3" /><path
         d="m 30.6842,70.1256 h -8.2349 v -8.0974 h 0.2231 c 4.3637,0 7.956,3.563 8.0118,7.9433 z M 22.7514,69.822 h 7.6261 c -0.1348,-4.1187 -3.518,-7.4482 -7.6261,-7.4903 z"
         fill="#ffffff"
         id="path4" /><path
         d="M 20.0421,80.6746 H 19.8888 C 15.5297,80.6513 11.9839,77.0369 11.9839,72.624 v -0.3036 h 8.0582 z M 12.286,72.624 c 0,4.1981 3.332,7.6397 7.4541,7.7424 V 72.624 Z"
         fill="#ffffff"
         id="path5" /><path
         d="m 12.1697,67.3284 c -1.1432,0 -2.21203,-0.1495 -3.00671,-0.425 -0.94803,-0.3269 -1.44528,-0.8078 -1.44528,-1.3962 0,-2.6291 1.831,-4.469 4.45199,-4.469 2.6211,0 4.4521,1.8352 4.4521,4.469 0,1.2561 -2.2353,1.8212 -4.4521,1.8212 z m 0,-5.982 c -2.44439,0 -4.14992,1.7091 -4.14992,4.1608 0,0.9946 2.08662,1.5176 4.14992,1.5176 2.0634,0 4.15,-0.5183 4.15,-1.5176 0,-2.4517 -1.7055,-4.1655 -4.15,-4.1655 z"
         fill="#ffffff"
         id="path6" /><path
         d="m 12.1697,67.3284 c -1.1432,0 -2.21203,-0.1495 -3.00671,-0.425 -0.94803,-0.3269 -1.44528,-0.8078 -1.44528,-1.3962 0,-2.6291 1.831,-4.469 4.45199,-4.469 2.6211,0 4.4521,1.8352 4.4521,4.469 0,1.2561 -2.2353,1.8212 -4.4521,1.8212 z m 0,-5.982 c -2.44439,0 -4.14992,1.7091 -4.14992,4.1608 0,0.9946 2.08662,1.5176 4.14992,1.5176 2.0634,0 4.15,-0.5183 4.15,-1.5176 0,-2.4517 -1.7055,-4.1655 -4.15,-4.1655 z"
         fill="#ffffff"
         id="path7" /><path
         d="m 12.1697,62.2618 c -1.4592,0 -2.64425,-1.1907 -2.64425,-2.657 0,-1.4663 1.18965,-2.6618 2.64425,-2.6618 1.4546,0 2.6443,1.1908 2.6443,2.6571 0,1.4663 -1.1851,2.6571 -2.6443,2.6571 z m 0,-5.0153 c -1.2919,0 -2.34218,1.0554 -2.34218,2.3536 0,1.2982 1.05028,2.3535 2.34218,2.3535 1.2919,0 2.3422,-1.0553 2.3422,-2.3535 0,-1.2982 -1.0456,-2.3536 -2.3422,-2.3536 z"
         fill="#ffffff"
         id="path8" /><path
         d="m 12.1697,62.2618 c -1.4592,0 -2.64425,-1.1907 -2.64425,-2.657 0,-1.4663 1.18965,-2.6618 2.64425,-2.6618 1.4546,0 2.6443,1.1908 2.6443,2.6571 0,1.4663 -1.1851,2.6571 -2.6443,2.6571 z m 0,-5.0153 c -1.2919,0 -2.34218,1.0554 -2.34218,2.3536 0,1.2982 1.05028,2.3535 2.34218,2.3535 1.2919,0 2.3422,-1.0553 2.3422,-2.3535 0,-1.2982 -1.0456,-2.3536 -2.3422,-2.3536 z"
         fill="#ffffff"
         id="path9" /><path
         d="m 12.1697,83.8876 c -1.1432,0 -2.21203,-0.1495 -3.00671,-0.425 -0.94803,-0.3269 -1.44528,-0.8078 -1.44528,-1.3962 0,-2.6291 1.831,-4.469 4.45199,-4.469 2.6211,0 4.4521,1.8352 4.4521,4.469 0,1.2561 -2.2353,1.8212 -4.4521,1.8212 z m 0,-5.982 c -2.44439,0 -4.14992,1.7138 -4.14992,4.1654 0,0.9947 2.08662,1.5177 4.14992,1.5177 2.0634,0 4.15,-0.523 4.15,-1.5177 0,-2.4516 -1.7055,-4.1654 -4.15,-4.1654 z"
         fill="#ffffff"
         id="path10" /><path
         d="m 12.1697,83.8876 c -1.1432,0 -2.21203,-0.1495 -3.00671,-0.425 -0.94803,-0.3269 -1.44528,-0.8078 -1.44528,-1.3962 0,-2.6291 1.831,-4.469 4.45199,-4.469 2.6211,0 4.4521,1.8352 4.4521,4.469 0,1.2561 -2.2353,1.8212 -4.4521,1.8212 z m 0,-5.982 c -2.44439,0 -4.14992,1.7138 -4.14992,4.1654 0,0.9947 2.08662,1.5177 4.14992,1.5177 2.0634,0 4.15,-0.523 4.15,-1.5177 0,-2.4516 -1.7055,-4.1654 -4.15,-4.1654 z"
         fill="#ffffff"
         id="path11" /><path
         d="m 12.1697,78.8207 c -1.4592,0 -2.64425,-1.1908 -2.64425,-2.6571 0,-1.4663 1.18505,-2.6571 2.64425,-2.6571 1.4592,0 2.6443,1.1908 2.6443,2.6571 0,1.4663 -1.1851,2.6571 -2.6443,2.6571 z m 0,-5.0154 c -1.2919,0 -2.34218,1.0554 -2.34218,2.3536 0,1.2982 1.05028,2.3535 2.34218,2.3535 1.2919,0 2.3422,-1.0553 2.3422,-2.3535 0,-1.2982 -1.0503,-2.3536 -2.3422,-2.3536 z"
         fill="#ffffff"
         id="path12" /><path
         d="m 12.1697,78.8207 c -1.4592,0 -2.64425,-1.1908 -2.64425,-2.6571 0,-1.4663 1.18505,-2.6571 2.64425,-2.6571 1.4592,0 2.6443,1.1908 2.6443,2.6571 0,1.4663 -1.1851,2.6571 -2.6443,2.6571 z m 0,-5.0154 c -1.2919,0 -2.34218,1.0554 -2.34218,2.3536 0,1.2982 1.05028,2.3535 2.34218,2.3535 1.2919,0 2.3422,-1.0553 2.3422,-2.3535 0,-1.2982 -1.0503,-2.3536 -2.3422,-2.3536 z"
         fill="#ffffff"
         id="path13" /><path
         d="m 29.9871,67.3284 c -1.1432,0 -2.2121,-0.1495 -3.0067,-0.425 -0.9481,-0.3269 -1.4453,-0.8078 -1.4453,-1.3962 0,-2.6291 1.831,-4.469 4.452,-4.469 2.621,0 4.452,1.8352 4.452,4.469 0,1.2561 -2.2353,1.8212 -4.452,1.8212 z m 0,-5.982 c -2.4444,0 -4.1499,1.7138 -4.1499,4.1654 0,0.9947 2.0866,1.5177 4.1499,1.5177 2.0634,0 4.15,-0.5183 4.15,-1.5177 0,-2.4516 -1.7056,-4.1654 -4.15,-4.1654 z"
         fill="#ffffff"
         id="path14" /><path
         d="m 29.9871,67.3284 c -1.1432,0 -2.2121,-0.1495 -3.0067,-0.425 -0.9481,-0.3269 -1.4453,-0.8078 -1.4453,-1.3962 0,-2.6291 1.831,-4.469 4.452,-4.469 2.621,0 4.452,1.8352 4.452,4.469 0,1.2561 -2.2353,1.8212 -4.452,1.8212 z m 0,-5.982 c -2.4444,0 -4.1499,1.7138 -4.1499,4.1654 0,0.9947 2.0866,1.5177 4.1499,1.5177 2.0634,0 4.15,-0.5183 4.15,-1.5177 0,-2.4516 -1.7056,-4.1654 -4.15,-4.1654 z"
         fill="#ffffff"
         id="path15" /><path
         d="m 29.9872,62.2618 c -1.4593,0 -2.6443,-1.1908 -2.6443,-2.6571 0,-1.4663 1.185,-2.6571 2.6443,-2.6571 1.4592,0 2.6442,1.1908 2.6442,2.6571 0,1.4663 -1.185,2.6571 -2.6442,2.6571 z m 0,-5.0153 c -1.292,0 -2.3422,1.0554 -2.3422,2.3536 0,1.2981 1.0502,2.3535 2.3422,2.3535 1.2919,0 2.3421,-1.0554 2.3421,-2.3535 0,-1.2982 -1.0502,-2.3536 -2.3421,-2.3536 z"
         fill="#ffffff"
         id="path16" /><path
         d="m 29.9872,62.2618 c -1.4593,0 -2.6443,-1.1908 -2.6443,-2.6571 0,-1.4663 1.185,-2.6571 2.6443,-2.6571 1.4592,0 2.6442,1.1908 2.6442,2.6571 0,1.4663 -1.185,2.6571 -2.6442,2.6571 z M 27.645,59.6001 c 0,1.2981 1.0502,2.3535 2.3422,2.3535 1.2919,0 2.3421,-1.0554 2.3421,-2.3535 0,-1.2982 -1.0502,-2.3536 -2.3421,-2.3536 -1.292,0 -2.3422,1.0554 -2.3422,2.3536 z"
         fill="#ffffff"
         id="path17" /><path
         d="m 30.2102,83.8876 c -1.1432,0 -2.2121,-0.1495 -3.0068,-0.425 -0.948,-0.3269 -1.4453,-0.8078 -1.4453,-1.3962 0,-2.6291 1.831,-4.469 4.4521,-4.469 2.621,0 4.452,1.8352 4.452,4.469 0,1.2561 -2.2353,1.8212 -4.452,1.8212 z m 0,-5.982 c -2.4445,0 -4.15,1.7138 -4.15,4.1654 0,0.9947 2.0866,1.5177 4.15,1.5177 2.0633,0 4.1499,-0.523 4.1499,-1.5177 0,-2.4516 -1.7055,-4.1654 -4.1499,-4.1654 z"
         fill="#ffffff"
         id="path18" /><path
         d="m 30.2102,83.8876 c -1.1432,0 -2.2121,-0.1495 -3.0068,-0.425 -0.948,-0.3269 -1.4453,-0.8078 -1.4453,-1.3962 0,-2.6291 1.831,-4.469 4.4521,-4.469 2.621,0 4.452,1.8352 4.452,4.469 0,1.2561 -2.2353,1.8212 -4.452,1.8212 z m 0,-5.982 c -2.4445,0 -4.15,1.7138 -4.15,4.1654 0,0.9947 2.0866,1.5177 4.15,1.5177 2.0633,0 4.1499,-0.523 4.1499,-1.5177 0,-2.4516 -1.7055,-4.1654 -4.1499,-4.1654 z"
         fill="#ffffff"
         id="path19" /><path
         d="m 30.2102,78.8207 c -1.4592,0 -2.6443,-1.1908 -2.6443,-2.6571 0,-1.4663 1.1851,-2.6571 2.6443,-2.6571 1.4592,0 2.6443,1.1908 2.6443,2.6571 0,1.4663 -1.1851,2.6571 -2.6443,2.6571 z m 0,-5.0154 c -1.2919,0 -2.3422,1.0554 -2.3422,2.3536 0,1.2982 1.0503,2.3535 2.3422,2.3535 1.2919,0 2.3422,-1.0553 2.3422,-2.3535 0,-1.2982 -1.0503,-2.3536 -2.3422,-2.3536 z"
         fill="#ffffff"
         id="path20" /><path
         d="m 30.2102,78.8207 c -1.4592,0 -2.6443,-1.1908 -2.6443,-2.6571 0,-1.4663 1.1851,-2.6571 2.6443,-2.6571 1.4592,0 2.6443,1.1908 2.6443,2.6571 0,1.4663 -1.1851,2.6571 -2.6443,2.6571 z m 0,-5.0154 c -1.2919,0 -2.3422,1.0554 -2.3422,2.3536 0,1.2982 1.0503,2.3535 2.3422,2.3535 1.2919,0 2.3422,-1.0553 2.3422,-2.3535 0,-1.2982 -1.0503,-2.3536 -2.3422,-2.3536 z"
         fill="#ffffff"
         id="path21" /><path
         d="m 21.3015,76.6026 c -1.0596,0 -2.0959,-0.3269 -2.9835,-0.9573 -2.3376,-1.6578 -2.8999,-4.9173 -1.2501,-7.2662 0.7993,-1.1394 1.9936,-1.8959 3.3552,-2.134 1.3663,-0.2382 2.7419,0.0747 3.8758,0.8779 1.1339,0.8032 1.8868,2.0033 2.1238,3.3715 0.237,1.3683 -0.0744,2.7552 -0.8737,3.8946 -0.7993,1.1394 -1.989,1.8959 -3.3553,2.1341 -0.2974,0.0514 -0.5948,0.0794 -0.8922,0.0794 z m -2.807,-1.2048 c 1.0643,0.7565 2.3608,1.0507 3.6481,0.8265 1.2873,-0.2241 2.4073,-0.9339 3.1601,-2.008 0.7529,-1.0693 1.0456,-2.3722 0.8226,-3.6657 -0.2231,-1.2935 -0.9341,-2.4236 -1.9983,-3.1755 -1.0642,-0.7565 -2.3608,-1.0507 -3.6481,-0.8265 -1.2873,0.2241 -2.4072,0.9339 -3.1601,2.008 -1.5522,2.2135 -1.0224,5.2815 1.1757,6.8459 z"
         fill="#ffffff"
         id="path22" /><path
         d="m 21.3015,76.6026 c -1.0596,0 -2.0959,-0.3269 -2.9835,-0.9573 -2.3376,-1.6578 -2.8999,-4.9173 -1.2501,-7.2662 0.7993,-1.1394 1.9936,-1.8959 3.3552,-2.134 1.3663,-0.2382 2.7419,0.0747 3.8758,0.8779 1.1339,0.8032 1.8868,2.0033 2.1238,3.3715 0.237,1.3683 -0.0744,2.7552 -0.8737,3.8946 -0.7993,1.1394 -1.989,1.8959 -3.3553,2.1341 -0.2974,0.0514 -0.5948,0.0794 -0.8922,0.0794 z m -2.807,-1.2048 c 1.0643,0.7565 2.3608,1.0507 3.6481,0.8265 1.2873,-0.2241 2.4073,-0.9339 3.1601,-2.008 0.7529,-1.0693 1.0456,-2.3722 0.8226,-3.6657 -0.2231,-1.2935 -0.9341,-2.4236 -1.9983,-3.1755 -1.0642,-0.7565 -2.3608,-1.0507 -3.6481,-0.8265 -1.2873,0.2241 -2.4072,0.9339 -3.1601,2.008 -1.5522,2.2135 -1.0224,5.2815 1.1757,6.8459 z"
         fill="#ffffff"
         id="path23" /></g></g></svg>
