<svg width="22" height="22" viewBox="0 0 22 22" fill="none" xmlns="http://www.w3.org/2000/svg">
<path fill-rule="evenodd" clip-rule="evenodd" d="M11.1973 4.28197C14.0522 1.87583 17.4466 0.728442 21.7019 0.846521L21.8187 0.849762L21.8219 0.966565C21.94 5.22183 20.7921 8.6162 18.3858 11.4711C17.2037 12.8736 15.7196 14.1438 13.9367 15.3217L13.1536 19.7725C12.9419 20.9749 11.8977 21.8534 10.6749 21.8534H10.5974L7.49261 18.7397L5.71977 20.9963L1.71936 16.9959L3.97963 15.2203L3.94909 15.2071C3.95121 15.2022 3.95333 15.1972 3.95546 15.1923L0.815002 12.0428V11.9917C0.815002 10.7708 1.69156 9.72482 2.89592 9.51304C2.89591 9.51304 2.89592 9.51304 2.89592 9.51304L7.34746 8.72979C8.52514 6.94735 9.79511 5.46372 11.1973 4.28197ZM7.49524 8.95461L7.49697 8.95431L7.49665 8.95246C8.67964 7.14761 9.95276 5.65391 11.3565 4.47087C12.4474 3.55143 13.6185 2.81853 14.8897 2.27307L14.7623 2.40046L20.2679 7.90608L20.3947 7.77929C19.8492 9.05024 19.1163 10.2212 18.1969 11.3119C17.0137 12.7157 15.5199 13.9889 13.715 15.1719L13.7124 15.1714L13.7119 15.1739C11.9471 16.3304 9.88506 17.4007 7.52535 18.4226L4.24862 15.1365C5.26996 12.7786 6.33959 10.7181 7.49524 8.95461ZM7.16264 9.01314L2.93873 9.75634C1.86923 9.9444 1.08633 10.8619 1.06259 11.9412L4.06099 14.9483C5.03685 12.7053 6.05953 10.726 7.16264 9.01314ZM4.15735 15.3948L7.3169 18.5634L5.69754 20.6247L2.09095 17.0181L4.15735 15.3948ZM7.71277 18.6106L10.6998 21.6062C11.7918 21.5944 12.7208 20.8061 12.9103 19.7297C12.9103 19.7297 12.9103 19.7297 12.9103 19.7297L13.6534 15.5065C11.939 16.6105 9.95787 17.634 7.71277 18.6106ZM20.4234 7.71213C21.2475 5.76336 21.6334 3.57986 21.5779 1.09053C19.0885 1.035 16.9049 1.42083 14.956 2.24482L20.4234 7.71213ZM14.962 7.70645C14.1504 6.89487 12.8329 6.89487 12.0213 7.70645C11.2098 8.51803 11.2098 9.83549 12.0213 10.6471C12.8329 11.4586 14.1504 11.4586 14.962 10.6471C15.7735 9.83549 15.7735 8.51803 14.962 7.70645ZM11.8467 7.53177C12.7547 6.62372 14.2286 6.62372 15.1366 7.53177C16.0447 8.43982 16.0447 9.9137 15.1366 10.8218C14.2286 11.7298 12.7547 11.7298 11.8467 10.8218C10.9386 9.9137 10.9386 8.43982 11.8467 7.53177Z" fill="#E6530F"/>
<path d="M2.89592 9.51304C1.69156 9.72482 0.815002 10.7708 0.815002 11.9917V12.0428L3.95546 15.1923C3.95333 15.1972 3.95121 15.2022 3.94909 15.2071L3.97963 15.2203L1.71936 16.9959L5.71977 20.9963L7.49261 18.7397L10.5974 21.8534H10.6749C11.8977 21.8534 12.9419 20.9749 13.1536 19.7725L13.9367 15.3217C15.7196 14.1438 17.2037 12.8736 18.3858 11.4711C20.7921 8.6162 21.94 5.22183 21.8219 0.966565L21.8187 0.849762L21.7018 0.846521C17.4466 0.728442 14.0522 1.87583 11.1973 4.28197C9.79511 5.46372 8.52514 6.94735 7.34746 8.72979L2.89592 9.51304ZM2.89592 9.51304C2.89591 9.51304 2.89592 9.51304 2.89592 9.51304ZM12.9103 19.7297C12.7208 20.8061 11.7918 21.5944 10.6998 21.6062L7.71277 18.6106C9.95787 17.634 11.939 16.6105 13.6534 15.5065L12.9103 19.7297ZM12.9103 19.7297C12.9103 19.7297 12.9103 19.7297 12.9103 19.7297ZM2.91732 9.63469L2.91723 9.63418M7.49524 8.95462L7.49697 8.95431L7.49665 8.95246C8.67964 7.14761 9.95276 5.65392 11.3565 4.47087C12.4474 3.55143 13.6185 2.81853 14.8897 2.27307L14.7623 2.40046L20.2679 7.90608L20.3947 7.77929C19.8492 9.05024 19.1163 10.2212 18.1969 11.3119C17.0137 12.7157 15.5199 13.9889 13.715 15.1719L13.7124 15.1714L13.7119 15.1739C11.9471 16.3304 9.88506 17.4007 7.52535 18.4226L4.24862 15.1365C5.26996 12.7786 6.33959 10.7181 7.49524 8.95462ZM2.93873 9.75634L7.16264 9.01314C6.05953 10.726 5.03685 12.7053 4.06099 14.9483L1.06259 11.9412C1.08633 10.8619 1.86923 9.9444 2.93873 9.75634ZM4.15735 15.3948L7.31689 18.5634L5.69754 20.6247L2.09095 17.0181L4.15735 15.3948ZM21.5779 1.09053C21.6334 3.57986 21.2475 5.76336 20.4234 7.71213L14.956 2.24482C16.9049 1.42083 19.0885 1.035 21.5779 1.09053ZM12.0213 7.70645C12.8329 6.89487 14.1504 6.89487 14.962 7.70645C15.7735 8.51803 15.7735 9.83549 14.962 10.6471C14.1504 11.4586 12.8329 11.4586 12.0213 10.6471C11.2098 9.83549 11.2098 8.51803 12.0213 7.70645ZM15.1366 7.53177C14.2286 6.62372 12.7547 6.62372 11.8467 7.53177C10.9386 8.43982 10.9386 9.9137 11.8467 10.8218C12.7547 11.7298 14.2286 11.7298 15.1366 10.8218C16.0447 9.9137 16.0447 8.43982 15.1366 7.53177Z" stroke="white" stroke-width="0.3" stroke-miterlimit="10"/>
</svg>
