<svg width="28" height="25" viewBox="0 0 28 25" fill="none" xmlns="http://www.w3.org/2000/svg">
<path fill-rule="evenodd" clip-rule="evenodd" d="M26.344 1.04697H20.9953V0.630981H26.7762V6.08558H26.344V1.04697ZM26.2555 1.44391L17.2366 9.94751H10.1026L1.60637 17.9601L1.30385 17.663L9.92609 9.53153H17.0601L25.953 1.14676L26.2555 1.44391ZM24.2774 22.3338V7.25098H24.7096V22.3338H24.2774ZM19.5574 10.8774V22.3338H19.1252V10.8774H19.5574ZM13.973 22.3338V12.0014H14.4053V22.3338H13.973ZM8.82088 22.3338V13.7901H9.25312V22.3338H8.82088ZM3.66871 22.3338V18.6355H4.10095V22.3338H3.66871ZM27.6622 24.5817H0.717712V24.1657H27.6622V24.5817Z" fill="white"/>
</svg>
