<svg width="30" height="20" viewBox="0 0 30 20" fill="none" xmlns="http://www.w3.org/2000/svg">
<mask id="mask0_2218_355" style="mask-type:luminance" maskUnits="userSpaceOnUse" x="0" y="0" width="30" height="20">
<path d="M29.3336 0.473389H0.813034V19.9875H29.3336V0.473389Z" fill="white"/>
</mask>
<g mask="url(#mask0_2218_355)">
<path fill-rule="evenodd" clip-rule="evenodd" d="M13.2919 1.60918C12.841 2.07152 12.5512 2.75872 12.5512 3.65381C12.5512 5.46339 13.7187 6.80813 15.0733 6.80813C16.4279 6.80813 17.5954 5.46339 17.5954 3.65381C17.5954 2.75872 17.3056 2.07152 16.8547 1.60918C16.4033 1.14637 15.7763 0.894057 15.0733 0.894057C14.3704 0.894057 13.7433 1.14637 13.2919 1.60918ZM12.9904 1.3156C13.5281 0.764281 14.2673 0.473389 15.0733 0.473389C15.8793 0.473389 16.6186 0.764281 17.1563 1.3156C17.6944 1.86738 18.0165 2.66523 18.0165 3.65381C18.0165 5.61156 16.7366 7.2288 15.0733 7.2288C13.41 7.2288 12.1302 5.61156 12.1302 3.65381C12.1302 2.66523 12.4522 1.86738 12.9904 1.3156ZM4.88247 3.28908C4.4618 3.72073 4.19069 4.3627 4.19069 5.19966C4.19069 6.8929 5.28342 8.14588 6.54483 8.14588C7.80624 8.14588 8.89898 6.8929 8.89898 5.19966C8.89898 4.36128 8.62783 3.71937 8.20724 3.28812C7.78621 2.85642 7.20117 2.62098 6.54483 2.62098C5.88865 2.62098 5.30358 2.85699 4.88247 3.28908ZM4.58079 2.99562C5.0881 2.47507 5.78538 2.20031 6.54483 2.20031C7.30413 2.20031 8.00143 2.47429 8.50883 2.99455C9.01668 3.51528 9.32005 4.26787 9.32005 5.19966C9.32005 7.04133 8.1147 8.56655 6.54483 8.56655C4.97497 8.56655 3.76962 7.04133 3.76962 5.19966C3.76962 4.26915 4.07303 3.51662 4.58079 2.99562ZM21.6378 2.99455C22.1452 2.47429 22.8425 2.20031 23.6018 2.20031C24.3613 2.20031 25.0585 2.47507 25.5659 2.99562C26.0736 3.51662 26.377 4.26915 26.377 5.19966C26.377 7.04133 25.1717 8.56655 23.6018 8.56655C22.0319 8.56655 20.8266 7.04133 20.8266 5.19966C20.8266 4.26787 21.13 3.51528 21.6378 2.99455ZM21.9394 3.28812C21.5188 3.71937 21.2477 4.36128 21.2477 5.19966C21.2477 6.8929 22.3404 8.14588 23.6018 8.14588C24.8632 8.14588 25.956 6.8929 25.956 5.19966C25.956 4.3627 25.6848 3.72073 25.2642 3.28908C24.8431 2.85699 24.258 2.62098 23.6018 2.62098C22.9455 2.62098 22.3604 2.85642 21.9394 3.28812ZM15.0307 9.3638C13.1812 9.3638 11.7563 9.71521 10.747 10.1012C9.67085 10.5125 8.95747 11.5626 8.95747 12.7343V19.5582H8.5364V12.7343C8.5364 11.3927 9.35332 10.1835 10.5965 9.70833C11.6507 9.30518 13.1264 8.94313 15.0307 8.94313C16.9349 8.94313 18.4106 9.30518 19.4648 9.70833C20.708 10.1835 21.5249 11.3927 21.5249 12.7343V19.5582H21.1039V12.7343C21.1039 11.5626 20.3905 10.5125 19.3143 10.1012C18.305 9.71523 16.8801 9.3638 15.0307 9.3638ZM2.40135 11.1682C3.40659 10.7362 4.90908 10.3079 6.92074 10.3079V10.7286C4.97074 10.7286 3.52465 11.1434 2.56773 11.5546C1.75623 11.9033 1.23411 12.7271 1.23411 13.6343V19.5668H3.83021L3.81494 15.1998L4.23601 15.1983L4.25128 19.5668H25.8927L25.908 15.1983L26.329 15.1998L26.3138 19.5668H28.9125V13.6343C28.9125 12.73 28.3906 11.9059 27.5784 11.5544C26.6244 11.1434 25.1784 10.7286 23.2259 10.7286V10.3079C25.2402 10.3079 26.7427 10.7362 27.7455 11.1683C28.7195 11.5898 29.3336 12.5711 29.3336 13.6343V19.9875H0.813042V13.6343C0.813042 12.5686 1.42663 11.587 2.40135 11.1682ZM17.9313 19.3853V14.1423H18.3524V19.3853H17.9313ZM12.1353 14.145V19.388H11.7143V14.145H12.1353Z" fill="white"/>
</g>
</svg>
