<svg width="24" height="24" viewBox="0 0 24 24" fill="none" xmlns="http://www.w3.org/2000/svg">
<mask id="mask0_2218_363" style="mask-type:luminance" maskUnits="userSpaceOnUse" x="0" y="0" width="24" height="24">
<path d="M23.4771 0.446167H0.626572V23.2967H23.4771V0.446167Z" fill="white"/>
</mask>
<g mask="url(#mask0_2218_363)">
<path d="M22.561 23.2967H0.626572V22.8005H22.561V23.2967ZM20.8048 21.5731H20.3087V6.39783H22.4386L18.268 1.23685L14.0974 6.39783H16.2307V21.5731H15.7346V6.89408H13.0589L18.2647 0.446167L23.4771 6.89408H20.8048V21.5731ZM11.65 21.5731H11.1539V9.77562H14.1437V10.2719H11.65V21.5764V21.5731ZM7.07261 21.5731H6.57651V13.7919H9.61597V14.2882H7.07261V21.5731ZM2.60768 21.5731H2.11158V17.6263H4.96252V18.1225H2.60768V21.5731Z" fill="white"/>
</g>
</svg>
