<svg width="337" height="86" viewBox="0 0 337 86" fill="none" xmlns="http://www.w3.org/2000/svg">
<path d="M0.00553536 26.2816C-0.0655447 22.4475 0.548439 18.6317 1.81832 15.0154C2.91392 11.9473 4.64697 9.14884 6.90224 6.80589C9.13245 4.5535 11.8309 2.82462 14.8041 1.74313C18.0928 0.552877 21.5674 -0.0344084 25.0626 0.00922128C28.3281 -0.0255353 31.5676 0.594904 34.5913 1.83419C37.4173 2.99962 39.9915 4.70468 42.1713 6.85493C44.354 9.03675 46.0688 11.6447 47.2099 14.518C48.4375 17.5909 49.0542 20.8758 49.025 24.187C49.063 27.5098 48.4621 30.8087 47.2552 33.9026C46.144 36.7451 44.4769 39.3349 42.3526 41.519C40.256 43.653 37.7553 45.3435 34.998 46.4907C32.0763 47.6973 28.943 48.3021 25.7842 48.2689C22.6135 48.3309 19.4727 47.6438 16.6146 46.263C14.1856 45.113 12.0447 43.4295 10.35 41.3368V65.3277H0.00553536V26.2816ZM24.3363 39.0541C26.2859 39.0763 28.2185 38.6877 30.0094 37.9134C31.6927 37.1841 33.2076 36.1127 34.4589 34.7667C35.7192 33.3948 36.6914 31.7817 37.3175 30.0238C37.9967 28.1219 38.335 26.1141 38.3168 24.0935C38.3326 22.1181 37.994 20.1559 37.3175 18.301C36.6899 16.5706 35.7171 14.9873 34.4589 13.6481C33.1963 12.3266 31.6835 11.2722 30.0094 10.5469C28.2182 9.7735 26.2858 9.38531 24.3363 9.40732C22.3909 9.38494 20.4611 9.75705 18.6621 10.5014C16.979 11.1911 15.4565 12.224 14.1908 13.535C12.9251 14.8459 11.9437 16.4064 11.3087 18.1177C9.91574 21.9642 9.91574 26.1808 11.3087 30.0273C11.9572 31.7747 12.9274 33.3836 14.1685 34.7702C15.3967 36.1218 16.8977 37.1946 18.5715 37.9169C20.3931 38.6956 22.3569 39.0826 24.3363 39.053V39.0541Z" fill="#004876"/>
<path d="M117.845 0.0103904C121.213 -0.0157284 124.556 0.603647 127.694 1.83536C130.645 2.98564 133.344 4.7056 135.638 6.89813C137.886 9.07182 139.677 11.6779 140.903 14.5612C142.161 17.5961 142.809 20.8514 142.809 24.1391C142.809 27.4268 142.161 30.682 140.903 33.717C139.678 36.6006 137.887 39.2067 135.638 41.38C133.339 43.5771 130.642 45.3112 127.694 46.4883C121.361 48.981 114.326 48.981 107.993 46.4883C105.044 45.312 102.348 43.5778 100.05 41.38C97.8006 39.2071 96.0099 36.6008 94.785 33.717C93.5262 30.6822 92.878 27.4269 92.878 24.1391C92.878 20.8512 93.5262 17.596 94.785 14.5612C96.0104 11.6776 97.8011 9.07151 100.05 6.89813C102.343 4.70489 105.041 2.98482 107.993 1.83536C111.131 0.6033 114.475 -0.0160827 117.845 0.0103904ZM117.845 39.1441C119.808 39.1634 121.755 38.7754 123.563 38.0045C125.272 37.2777 126.805 36.1888 128.058 34.8122C129.309 33.4251 130.294 31.817 130.963 30.0694C131.674 28.1907 132.029 26.1946 132.009 24.1846C132.023 22.1458 131.669 20.1214 130.963 18.2099C130.316 16.4385 129.329 14.812 128.058 13.4227C126.794 12.0706 125.263 10.9988 123.563 10.276C119.884 8.75576 115.757 8.75576 112.078 10.276C110.396 11.0067 108.882 12.0779 107.63 13.4227C106.358 14.8112 105.371 16.4379 104.725 18.2099C104.018 20.1212 103.664 22.1458 103.679 24.1846C103.658 26.1947 104.013 28.1909 104.725 30.0694C105.392 31.8176 106.378 33.4259 107.63 34.8122C108.871 36.1813 110.387 37.2695 112.078 38.0045C113.9 38.7842 115.865 39.1719 117.845 39.1429V39.1441Z" fill="#004876"/>
<path d="M57.8368 17.6203C57.8368 12.0259 59.5465 7.69288 62.966 4.62128C66.3855 1.54969 71.1216 0.0142785 77.1743 0.0150569C80.3519 -0.0998067 83.5191 0.443504 86.4788 1.61119C88.8695 2.67605 90.0652 4.30292 90.066 6.4918C90.0573 7.55559 89.7587 8.59664 89.2026 9.5019C88.8539 10.1946 88.3762 10.8138 87.7953 11.3257C86.5635 10.7663 85.2884 10.3087 83.9827 9.95727C82.2945 9.51025 80.5538 9.29579 78.8081 9.31975C71.7274 9.31975 68.1871 13.09 68.1871 20.6304V47.0838H57.8368V17.6203Z" fill="#004876"/>
<path d="M151.525 17.6203C151.466 14.9824 151.993 12.3646 153.068 9.95726C154.044 7.83511 155.488 5.96345 157.289 4.4835C159.161 2.97896 161.303 1.84895 163.599 1.15464C166.16 0.373903 168.824 -0.0103626 171.501 0.0150508C174.973 -0.0428719 178.415 0.674988 181.578 2.11676C184.48 3.46137 186.938 5.61386 188.659 8.3191C190.359 5.62824 192.781 3.47492 195.647 2.10741C198.745 0.665764 202.128 -0.052736 205.543 0.005715C208.184 -0.0143801 210.814 0.354209 213.349 1.09976C215.636 1.7598 217.768 2.87695 219.615 4.38426C221.393 5.87485 222.819 7.74417 223.79 9.85685C224.864 12.2644 225.391 14.8821 225.333 17.5199V47.0756H214.984V21.0823C214.984 16.8859 214.046 13.889 212.17 12.0917C210.08 10.2204 207.338 9.25509 204.543 9.40615C203.115 9.36711 201.694 9.61307 200.362 10.1298C199.029 10.6465 197.812 11.4236 196.781 12.4163C194.693 14.4238 193.649 17.6775 193.649 22.1775V47.0803H183.3V22.174C183.3 17.674 182.254 14.4203 180.162 12.4128C178.056 10.5226 175.343 9.45521 172.519 9.40485C169.695 9.35449 166.947 10.3245 164.775 12.1384C162.838 13.963 161.87 16.9734 161.87 21.1698V47.0768H151.52L151.525 17.6203Z" fill="#004876"/>
<path d="M292.694 19.4406C292.646 16.6275 293.22 13.8388 294.375 11.2755C295.456 8.92377 297.036 6.838 299.004 5.16422C301.063 3.44137 303.438 2.13994 305.994 1.33328C308.857 0.425937 311.845 -0.0205455 314.846 0.0103849C317.862 -0.0179242 320.864 0.428444 323.743 1.33328C326.316 2.13337 328.706 3.43516 330.778 5.16422C332.741 6.83217 334.307 8.92029 335.362 11.2755C336.487 13.8469 337.045 16.6323 336.997 19.4406V47.0803H326.648V22.0864C326.648 17.9515 325.649 14.8044 323.652 12.6451C321.655 10.4858 318.72 9.40654 314.846 9.40732C310.911 9.40732 307.96 10.4866 305.994 12.6451C304.028 14.8036 303.045 17.9507 303.045 22.0864V47.0803H292.696L292.694 19.4406Z" fill="#004876"/>
<path d="M259.014 0.0103904C262.383 -0.0157284 265.725 0.603647 268.863 1.83536C271.815 2.98564 274.513 4.7056 276.807 6.89813C279.056 9.07182 280.846 11.6779 282.072 14.5612C283.33 17.5961 283.978 20.8514 283.978 24.1391C283.978 27.4268 283.33 30.682 282.072 33.717C280.847 36.6006 279.056 39.2067 276.807 41.38C274.508 43.5771 271.812 45.3112 268.863 46.4883C262.53 48.981 255.495 48.981 249.162 46.4883C246.214 45.312 243.517 43.5778 241.219 41.38C238.97 39.2071 237.179 36.6008 235.954 33.717C234.695 30.6822 234.047 27.4269 234.047 24.1391C234.047 20.8512 234.695 17.596 235.954 14.5612C237.18 11.6776 238.97 9.07151 241.219 6.89813C243.512 4.70489 246.21 2.98482 249.162 1.83536C252.301 0.6033 255.644 -0.0160827 259.014 0.0103904ZM259.014 39.1441C260.978 39.1634 262.924 38.7754 264.732 38.0045C266.442 37.2777 267.975 36.1888 269.227 34.8122C270.479 33.4251 271.464 31.817 272.132 30.0694C272.844 28.1907 273.198 26.1946 273.178 24.1846C273.193 22.1458 272.838 20.1214 272.132 18.2099C271.485 16.4385 270.498 14.812 269.227 13.4227C267.963 12.0706 266.432 10.9988 264.732 10.276C261.054 8.75576 256.926 8.75576 253.248 10.276C251.566 11.0067 250.051 12.0779 248.799 13.4227C247.527 14.8112 246.54 16.4379 245.894 18.2099C245.188 20.1212 244.833 22.1458 244.849 24.1846C244.828 26.1947 245.182 28.1909 245.894 30.0694C246.562 31.8176 247.547 33.4259 248.799 34.8122C250.04 36.1813 251.556 37.2695 253.248 38.0045C255.07 38.7842 257.034 39.1719 259.014 39.1429V39.1441Z" fill="#004876"/>
<path d="M164.136 72.9651C164.204 74.4401 164.843 75.83 165.916 76.8392C167.085 77.7181 168.525 78.1532 169.983 78.0676C170.908 78.0812 171.829 77.9391 172.708 77.6472C173.32 77.4527 173.911 77.1973 174.473 76.8848L175.31 78.4097C175.145 78.5132 174.892 78.6533 174.551 78.83C174.152 79.0299 173.738 79.1963 173.312 79.3274C172.774 79.4962 172.226 79.6315 171.671 79.7326C171.023 79.85 170.364 79.9075 169.705 79.9042C168.663 79.9122 167.626 79.7437 166.64 79.4056C165.709 79.0927 164.857 78.5819 164.141 77.9081C163.425 77.2343 162.862 76.4134 162.49 75.5011C162.057 74.4298 161.846 73.2806 161.871 72.1244C161.857 70.9557 162.062 69.7949 162.475 68.7021C162.849 67.7105 163.412 66.8016 164.132 66.026C164.838 65.2757 165.693 64.682 166.641 64.2827C167.631 63.8641 168.695 63.6523 169.769 63.6604C171.504 63.5363 173.221 64.0812 174.57 65.1841C175.13 65.7359 175.567 66.4019 175.85 67.1375C176.133 67.873 176.256 68.661 176.21 69.4482C176.24 69.9183 176.178 70.3896 176.027 70.8354C175.875 71.2811 175.638 71.6926 175.328 72.0462C174.937 72.3845 174.481 72.6402 173.989 72.7978C173.497 72.9555 172.978 73.012 172.464 72.9639L164.136 72.9651ZM171.631 71.3164C172.29 71.3542 172.948 71.2144 173.535 70.9113C173.785 70.7088 173.978 70.4444 174.094 70.1442C174.211 69.844 174.248 69.5184 174.201 69.1995C174.202 68.7079 174.124 68.2193 173.969 67.7529C173.817 67.2915 173.563 66.871 173.225 66.5234C172.839 66.1418 172.374 65.8497 171.863 65.6675C171.202 65.4345 170.504 65.3242 169.804 65.3418C168.969 65.3252 168.141 65.5064 167.388 65.8707C166.714 66.202 166.113 66.6675 165.623 67.2391C165.144 67.805 164.772 68.4534 164.524 69.1528C164.27 69.8464 164.128 70.5766 164.105 71.3153L171.631 71.3164Z" fill="#E75300"/>
<path d="M193.409 79.464V70.8751C193.503 69.4169 193.044 67.977 192.123 66.8456C191.567 66.3293 190.908 65.9364 190.191 65.6924C189.473 65.4484 188.713 65.3587 187.959 65.4293C187.394 65.4257 186.83 65.462 186.271 65.5379C185.829 65.5984 185.389 65.6814 184.955 65.7866C184.654 65.8572 184.358 65.9509 184.072 66.0668C183.855 66.1602 183.715 66.2175 183.653 66.2385V79.4629H181.609V64.8677C181.671 64.8475 181.873 64.7696 182.213 64.6342C182.664 64.4652 183.124 64.3249 183.592 64.2138C184.266 64.0497 184.948 63.9195 185.636 63.8239C186.498 63.705 187.367 63.6481 188.237 63.6534C189.268 63.6371 190.294 63.795 191.273 64.1204C192.106 64.3996 192.875 64.8439 193.534 65.427C194.147 65.9787 194.633 66.6581 194.959 67.4178C195.295 68.2148 195.464 69.073 195.455 69.9386V79.4605L193.409 79.464Z" fill="#E75300"/>
<path d="M213.36 65.8964C214.033 66.5286 214.557 67.3046 214.892 68.1674C215.619 70.1072 215.569 72.2548 214.753 74.1584C214.334 75.0827 213.721 75.9052 212.956 76.5695C213.423 76.842 213.85 77.1771 214.226 77.5655C214.533 77.8856 214.794 78.2471 215 78.6397C215.175 78.9736 215.305 79.3293 215.387 79.6975C215.455 79.9989 215.491 80.3064 215.495 80.6153C215.51 81.403 215.334 82.1825 214.984 82.8875C214.642 83.553 214.149 84.1285 213.544 84.5676C212.865 85.052 212.104 85.4103 211.299 85.6255C210.356 85.8833 209.381 86.0091 208.403 85.9991C207.436 86.0105 206.47 85.9114 205.524 85.7037C204.791 85.5412 204.072 85.323 203.372 85.051C202.895 84.8669 202.434 84.6431 201.994 84.382C201.663 84.1742 201.467 84.0496 201.406 84.0084L202.366 82.39C202.51 82.4936 202.742 82.6438 203.063 82.8407C203.459 83.0756 203.873 83.2787 204.301 83.4479C204.878 83.6764 205.474 83.8534 206.082 83.9768C206.836 84.1292 207.604 84.2023 208.373 84.1952C209.012 84.1967 209.65 84.1392 210.278 84.0235C210.846 83.925 211.391 83.7249 211.888 83.4327C212.345 83.161 212.724 82.7753 212.988 82.313C213.271 81.7831 213.41 81.1873 213.39 80.5861C213.386 80.3506 213.36 80.116 213.312 79.8855C213.252 79.606 213.148 79.3382 213.002 79.0927C212.828 78.7999 212.615 78.5331 212.367 78.2999C212.064 78.0161 211.719 77.7799 211.346 77.5993C210.388 78.0256 209.356 78.2574 208.309 78.2815C207.262 78.3055 206.221 78.1213 205.245 77.7395C204.384 77.3942 203.601 76.8811 202.938 76.2297C202.279 75.5732 201.758 74.7902 201.406 73.9272C200.662 72.027 200.662 69.9146 201.406 68.0144C201.758 67.1515 202.279 66.3685 202.938 65.7119C203.601 65.0608 204.385 64.5477 205.245 64.2022C206.16 63.8341 207.139 63.6492 208.125 63.658C209.01 63.6609 209.888 63.808 210.726 64.0936H215.464C215.722 64.085 215.975 64.1559 216.191 64.2967C216.295 64.3791 216.377 64.4865 216.428 64.609C216.48 64.7315 216.499 64.8651 216.485 64.9973C216.491 65.1948 216.455 65.3912 216.377 65.5729C216.327 65.6854 216.27 65.7946 216.207 65.8999L213.36 65.8964ZM208.13 76.5999C208.852 76.6082 209.568 76.4704 210.236 76.1947C210.861 75.9361 211.421 75.5432 211.878 75.0434C212.342 74.528 212.7 73.9252 212.931 73.2698C213.426 71.7804 213.426 70.1694 212.931 68.68C212.703 68.0188 212.345 67.4105 211.878 66.8912C211.421 66.3917 210.86 65.9988 210.236 65.7399C208.878 65.2013 207.367 65.2013 206.009 65.7399C205.39 66.0012 204.835 66.3939 204.382 66.8912C203.915 67.4105 203.557 68.0188 203.329 68.68C202.833 70.1694 202.833 71.7804 203.329 73.2698C203.56 73.9252 203.917 74.528 204.382 75.0434C204.835 75.5409 205.39 75.9337 206.009 76.1947C206.679 76.4732 207.4 76.6115 208.126 76.601L208.13 76.5999Z" fill="#E75300"/>
<path d="M224.144 72.9651C224.213 74.4401 224.852 75.83 225.925 76.8392C227.094 77.7181 228.534 78.1532 229.992 78.0676C230.917 78.0812 231.838 77.9391 232.717 77.6472C233.329 77.4527 233.92 77.1973 234.482 76.8848L235.319 78.4097C235.154 78.5132 234.901 78.6533 234.56 78.83C234.161 79.0299 233.747 79.1963 233.321 79.3274C232.783 79.4962 232.235 79.6315 231.68 79.7326C231.032 79.85 230.373 79.9075 229.714 79.9042C228.672 79.9122 227.635 79.7437 226.649 79.4056C225.718 79.0927 224.866 78.5819 224.15 77.9081C223.434 77.2343 222.871 76.4134 222.499 75.5011C222.066 74.4298 221.855 73.2806 221.88 72.1244C221.866 70.9557 222.071 69.7949 222.484 68.7021C222.858 67.7105 223.421 66.8016 224.141 66.026C224.847 65.2757 225.702 64.682 226.65 64.2827C227.64 63.8641 228.704 63.6523 229.778 63.6604C231.513 63.5363 233.229 64.0812 234.578 65.1841C235.139 65.7359 235.576 66.4019 235.859 67.1375C236.142 67.873 236.265 68.661 236.219 69.4482C236.249 69.9183 236.187 70.3896 236.035 70.8354C235.884 71.2811 235.647 71.6926 235.337 72.0462C234.946 72.3845 234.49 72.6402 233.998 72.7978C233.506 72.9555 232.987 73.012 232.473 72.9639L224.144 72.9651ZM231.64 71.3164C232.299 71.3542 232.957 71.2144 233.544 70.9113C233.794 70.7088 233.986 70.4444 234.103 70.1442C234.22 69.844 234.257 69.5184 234.21 69.1995C234.211 68.7079 234.133 68.2193 233.978 67.7529C233.826 67.2915 233.572 66.871 233.234 66.5234C232.847 66.1418 232.383 65.8497 231.872 65.6675C231.211 65.4345 230.513 65.3242 229.813 65.3418C228.977 65.3252 228.15 65.5064 227.397 65.8707C226.722 66.202 226.122 66.6675 225.632 67.2391C225.153 67.805 224.781 68.4534 224.533 69.1528C224.279 69.8464 224.137 70.5766 224.114 71.3153L231.64 71.3164Z" fill="#E75300"/>
<path d="M253.417 79.464V70.8751C253.512 69.4169 253.053 67.9768 252.132 66.8456C251.576 66.3293 250.917 65.9363 250.2 65.6923C249.482 65.4483 248.722 65.3587 247.967 65.4293C247.403 65.4257 246.839 65.462 246.28 65.5379C245.837 65.5984 245.398 65.6814 244.964 65.7866C244.663 65.8571 244.368 65.9508 244.082 66.0668C243.865 66.1603 243.725 66.2175 243.663 66.2385V79.4629H241.619V64.8677C241.682 64.8467 241.882 64.7696 242.223 64.6342C242.674 64.4651 243.134 64.3247 243.602 64.2138C244.276 64.0496 244.958 63.9195 245.646 63.8239C246.508 63.705 247.377 63.648 248.248 63.6534C249.278 63.6371 250.303 63.795 251.282 64.1204C252.115 64.3993 252.884 64.8436 253.543 65.427C254.156 65.9788 254.642 66.6581 254.968 67.4178C255.303 68.2149 255.472 69.0731 255.463 69.9386V79.4605L253.417 79.464Z" fill="#E75300"/>
<path d="M260.858 57.5876C260.845 57.4399 260.865 57.2911 260.917 57.1523C260.969 57.0135 261.052 56.8885 261.159 56.7866C261.267 56.6848 261.396 56.6087 261.536 56.5642C261.677 56.5197 261.826 56.508 261.972 56.5298C262.156 56.5296 262.339 56.5559 262.515 56.608C262.648 56.6439 262.777 56.6904 262.902 56.747V66.3307C263.397 65.5543 264.086 64.9216 264.9 64.4952C265.406 64.2301 265.941 64.0263 266.495 63.8881C267.164 63.7242 267.851 63.6458 268.539 63.6546C269.361 63.6053 270.185 63.7202 270.963 63.9926C271.741 64.2649 272.457 64.6893 273.071 65.2413C273.631 65.8251 274.064 66.5191 274.344 67.2794C274.624 68.0398 274.745 68.8502 274.698 69.6596V79.4675H272.654V70.443C272.661 69.7419 272.588 69.0423 272.437 68.3577C272.313 67.7815 272.065 67.2397 271.709 66.7709C271.343 66.3174 270.861 65.973 270.315 65.7749C269.614 65.5284 268.874 65.4125 268.131 65.4328C267.33 65.4122 266.534 65.5606 265.793 65.8683C265.171 66.1374 264.616 66.5408 264.166 67.05C263.728 67.5567 263.401 68.1508 263.206 68.7932C262.996 69.4785 262.892 70.1919 262.896 70.9089V79.4663H260.852L260.858 57.5876Z" fill="#E75300"/>
<path d="M286.286 65.3674C285.351 65.3245 284.417 65.478 283.544 65.8181C283.048 66.0245 282.583 66.3026 282.166 66.6436C282.006 66.5226 281.874 66.3685 281.778 66.1918C281.666 65.9983 281.607 65.7782 281.609 65.5543C281.603 65.3445 281.663 65.1382 281.778 64.9634C281.893 64.7962 282.034 64.6491 282.197 64.5279C282.578 64.2786 282.996 64.0895 283.435 63.9675C284.323 63.7265 285.242 63.6218 286.16 63.6569C288.146 63.514 290.122 64.051 291.766 65.1806C292.436 65.7988 292.955 66.5641 293.283 67.4169C293.611 68.2698 293.738 69.187 293.655 70.0974V79.4009C293.057 79.5045 292.251 79.6134 291.24 79.7279C289.902 79.8568 288.558 79.9141 287.214 79.8995C285.933 79.9407 284.653 79.7831 283.42 79.4325C282.625 79.2027 281.89 78.7987 281.268 78.2497C280.8 77.8204 280.467 77.2638 280.308 76.6477C280.167 76.0826 280.094 75.5024 280.091 74.9197C280.086 74.2423 280.196 73.5692 280.416 72.9289C280.64 72.2959 281.024 71.7325 281.531 71.2942C282.154 70.7771 282.884 70.4051 283.668 70.2048C284.765 69.9213 285.896 69.7905 287.028 69.816C287.481 69.816 287.946 69.8261 288.423 69.8464C288.899 69.8666 289.343 69.8876 289.754 69.9094C290.167 69.9305 290.539 69.9515 290.869 69.9725C291.199 69.9935 291.457 70.004 291.643 70.004V69.941C291.686 69.3175 291.598 68.6918 291.385 68.1048C291.171 67.5177 290.837 66.9825 290.404 66.5339C289.223 65.6441 287.755 65.2282 286.286 65.3674ZM291.643 71.7776C291.539 71.7566 291.334 71.7309 291.023 71.6994C290.713 71.6679 290.352 71.6363 289.939 71.606C289.527 71.5756 289.077 71.5488 288.592 71.5277C288.108 71.5067 287.648 71.4974 287.214 71.4974C285.943 71.4375 284.678 71.6942 283.529 72.2447C283.071 72.5122 282.698 72.9067 282.457 73.381C282.215 73.8552 282.114 74.3894 282.166 74.9197C282.134 75.3993 282.218 75.8797 282.412 76.319C282.607 76.7584 282.905 77.1433 283.281 77.4405C284.499 78.1152 285.891 78.4076 287.276 78.2801C288.279 78.2987 289.283 78.2468 290.28 78.1247C290.741 78.0685 291.197 77.9748 291.643 77.8445V71.7776Z" fill="#E75300"/>
<path d="M304.848 65.3978C304.318 65.3912 303.789 65.4382 303.269 65.5379C302.885 65.6117 302.507 65.7155 302.138 65.8485C301.89 65.9379 301.651 66.0526 301.426 66.1906C301.312 66.2599 301.203 66.3379 301.101 66.4241V79.4617H299.057V65.4924C299.119 65.4503 299.279 65.3312 299.536 65.1339C299.884 64.8861 300.258 64.6774 300.651 64.5116C301.222 64.265 301.812 64.0674 302.416 63.9208C303.202 63.734 304.008 63.6454 304.816 63.6569C305.616 63.6326 306.417 63.7 307.202 63.8577C307.608 63.9385 307.996 64.0911 308.348 64.3084C308.502 64.3948 308.629 64.5214 308.716 64.6748C308.804 64.8283 308.848 65.0027 308.844 65.1795C308.847 65.3968 308.794 65.6112 308.69 65.8018C308.612 65.9551 308.507 66.0925 308.38 66.2069C307.986 65.9773 307.565 65.7996 307.126 65.678C306.385 65.4712 305.617 65.3768 304.848 65.3978Z" fill="#E75300"/>
<path d="M317.305 58.0547C317.307 58.2597 317.269 58.4631 317.192 58.6529C317.115 58.8427 317.001 59.0152 316.856 59.1601C316.712 59.3051 316.54 59.4197 316.352 59.4971C316.163 59.5745 315.96 59.6133 315.756 59.6111C315.554 59.6164 315.353 59.579 315.167 59.5014C314.98 59.4237 314.811 59.3076 314.672 59.1604C314.53 59.0146 314.419 58.8418 314.344 58.6521C314.27 58.4624 314.234 58.2597 314.239 58.0559C314.234 57.8544 314.269 57.654 314.344 57.4669C314.418 57.2798 314.53 57.1099 314.672 56.9674C314.814 56.8249 314.983 56.7128 315.169 56.638C315.355 56.5632 315.555 56.5272 315.755 56.5321C315.958 56.5275 316.16 56.5636 316.348 56.6384C316.537 56.7132 316.709 56.8251 316.854 56.9676C317.001 57.1073 317.117 57.2761 317.194 57.4633C317.272 57.6505 317.31 57.8519 317.305 58.0547ZM314.766 65.1503C314.753 65.0025 314.773 64.8536 314.825 64.7148C314.877 64.576 314.96 64.4509 315.068 64.349C315.175 64.247 315.304 64.1709 315.445 64.1262C315.585 64.0816 315.734 64.0696 315.881 64.0912C316.064 64.0914 316.246 64.1178 316.422 64.1695C316.555 64.2061 316.685 64.2529 316.81 64.3096V79.464H314.766V65.1503Z" fill="#E75300"/>
<path d="M328.895 65.3674C327.96 65.3245 327.027 65.478 326.154 65.8181C325.657 66.0245 325.193 66.3026 324.776 66.6436C324.616 66.5226 324.484 66.3685 324.388 66.1918C324.276 65.9983 324.217 65.7782 324.218 65.5543C324.213 65.3445 324.272 65.1382 324.388 64.9634C324.503 64.7962 324.644 64.6491 324.806 64.5279C325.188 64.2786 325.606 64.0895 326.045 63.9675C326.932 63.7265 327.851 63.6218 328.77 63.6569C330.756 63.514 332.732 64.051 334.376 65.1806C335.046 65.7988 335.565 66.5641 335.893 67.4169C336.22 68.2698 336.348 69.187 336.265 70.0974V79.4009C335.666 79.5045 334.861 79.6134 333.849 79.7279C332.511 79.8568 331.168 79.9141 329.824 79.8995C328.543 79.9407 327.263 79.7831 326.03 79.4325C325.234 79.2027 324.499 78.7987 323.878 78.2497C323.41 77.8204 323.077 77.2638 322.918 76.6477C322.776 76.0826 322.703 75.5024 322.701 74.9197C322.696 74.2423 322.806 73.5692 323.026 72.9289C323.25 72.2959 323.634 71.7325 324.14 71.2942C324.764 70.7771 325.494 70.4051 326.277 70.2048C327.375 69.9213 328.505 69.7905 329.638 69.816C330.091 69.816 330.556 69.8261 331.032 69.8464C331.509 69.8666 331.953 69.8876 332.364 69.9094C332.777 69.9305 333.148 69.9515 333.478 69.9725C333.809 69.9935 334.066 70.004 334.252 70.004V69.941C334.296 69.3175 334.208 68.6918 333.994 68.1048C333.781 67.5177 333.447 66.9825 333.014 66.5339C331.833 65.6441 330.365 65.2282 328.895 65.3674ZM334.252 71.7776C334.149 71.7566 333.943 71.7309 333.633 71.6994C333.323 71.6679 332.961 71.6363 332.549 71.606C332.136 71.5756 331.687 71.5488 331.202 71.5277C330.717 71.5067 330.257 71.4974 329.824 71.4974C328.553 71.4375 327.287 71.6942 326.139 72.2447C325.68 72.5122 325.308 72.9067 325.066 73.381C324.825 73.8552 324.724 74.3894 324.776 74.9197C324.743 75.3993 324.828 75.8797 325.022 76.319C325.216 76.7584 325.514 77.1433 325.89 77.4405C327.109 78.1152 328.5 78.4076 329.885 78.2801C330.889 78.2987 331.893 78.2468 332.889 78.1247C333.35 78.0685 333.806 77.9748 334.252 77.8445V71.7776Z" fill="#E75300"/>
</svg>
